<svg xmlns="http://www.w3.org/2000/svg" width="678.458" height="100.029" viewBox="0 0 678.458 100.029"><g fill="#fff"><path d="M162.699 96.976c2.138.143 4.134 0 5.988-.142 11.12-.999 16.11-7.129 16.11-21.101v-75.56h3.136v75.419c0 16.538-6.844 23.381-18.962 24.237-1.995.142-3.992.284-6.272.142v-2.995zM202.943 76.447l-5.845 23.524h-2.852l24.094-99.942h4.419l24.664 99.941h-3.136l-5.845-23.524h-35.499zm.57-2.852h34.359l-17.393-69.858-16.966 69.858zM258.981 99.971h-2.994v-99.798h4.419l35.073 93.383v-93.383h2.993v99.798h-3.849l-35.642-95.236v95.236zM340.239 47.933v2.851h-29.37v46.192h34.93v2.994h-38.066v-99.797h38.066v2.994h-34.93v44.766h29.37zM410.089 50.357v2.994h-27.944v46.62h-3.136v-99.798h36.64v2.994h-33.504v47.19h27.944zM427.277.173v99.798h-3.136v-99.798h3.136zM439.322 99.971h-2.994v-99.798h4.419l35.073 93.383v-93.383h2.993v99.798h-3.849l-35.642-95.236v95.236zM520.581 47.933v2.851h-29.37v46.192h34.93v2.994h-38.066v-99.797h38.066v2.994h-34.93v44.766h29.37zM555.091 99.971v-96.804h-21.67v-2.994h46.62v2.994h-21.813v96.804h-3.137zM607.906 99.971v-96.804h-21.67v-2.994h46.62v2.994h-21.813v96.804h-3.137zM672.898 47.933v2.851h-29.37v46.192h34.93v2.994h-38.066v-99.797h38.066v2.994h-34.93v44.766h29.37z"/></g><path fill="#fff" d="M114.898 49.082c-.273.681-.561 1.48-.867 2.398-.306.918-.63 1.821-.969 2.704-.137.545-.306 1.071-.51 1.582-.204.51-.408 1.038-.612 1.582.271 1.158.289 2.229.051 3.214-.239.987-.528 1.752-.867 2.296-.137.273-.357.596-.663.969-.306.375-.732.698-1.276.969l-4.388 10.306c.271.885.561 2.041.867 3.469.306 1.429.526 2.586.663 3.469.067.883-.137 1.633-.612 2.245l-5.816 7.245c-3.265-1.497-6.684-2.755-10.255-3.776-3.571-1.02-7.16-1.837-10.765-2.449-3.607-.612-7.194-1.056-10.765-1.327-3.571-.273-7.025-.408-10.357-.408-3.198 0-6.684.136-10.459.408-3.776.271-7.569.73-11.378 1.378-3.811.646-7.484 1.462-11.02 2.449-3.538.985-6.701 2.194-9.49 3.622-.681-.545-1.413-1.173-2.194-1.888-.783-.714-1.548-1.378-2.296-1.99l-2.653-2.143c-.545-.545-.885-1.056-1.02-1.531-.069-.137-.102-.324-.102-.561v-.561c0-.341.033-.918.102-1.735.067-.816.153-1.666.255-2.551.102-.883.187-1.717.255-2.5.067-.781.102-1.378.102-1.786l-3.061-9.796c-.273-.136-.528-.289-.765-.459-.239-.169-.426-.357-.561-.561-.953-.883-1.548-2.023-1.786-3.418-.239-1.393-.018-2.738.663-4.031l-2.349-6.834c1.02-.34 2.431-.73 4.235-1.173 1.802-.442 3.316-.765 4.541-.969-.204.545-.477 1.276-.816 2.194-.341.918-.698 1.854-1.071 2.806-.375.953-.681 1.803-.918 2.551-.239.749-.357 1.191-.357 1.327 0 .341.067.443.204.306.883-.204 1.921-.832 3.112-1.888 1.189-1.054 2.092-1.99 2.704-2.806l2.551 12.857c-.749-.612-1.531-1.087-2.347-1.429-.816-.34-1.77-.679-2.857-1.02l-.816-.153c-.204-.033-.375-.051-.51-.051.408 1.429.934 2.806 1.582 4.133.646 1.327 1.462 2.5 2.449 3.52.985 1.02 2.125 1.837 3.418 2.449 1.291.612 2.755.918 4.388.918 1.224 0 2.431-.204 3.622-.612 1.189-.408 2.278-.985 3.265-1.735.985-.748 1.768-1.684 2.347-2.806.577-1.122.867-2.363.867-3.724 0-1.291-.426-2.551-1.276-3.776-.851-1.224-1.99-1.837-3.418-1.837-1.77 0-3.028.51-3.776 1.531-.75 1.019-1.123 2.346-1.123 3.978 0 .749.102 1.531.306 2.347-1.701-.271-2.908-1.156-3.622-2.653-.714-1.496-1.071-2.993-1.071-4.49 0-2.38.73-4.421 2.194-6.122 1.462-1.7 3.452-2.551 5.969-2.551.952 0 1.717.137 2.296.408.577.273 1.24.681 1.99 1.224-.749-1.156-1.242-2.21-1.48-3.163-.239-.952-.357-2.108-.357-3.469 0-1.429.289-2.789.867-4.082.577-1.291 1.24-2.482 1.99-3.571 1.768 1.224 3.112 2.62 4.031 4.184.918 1.566 1.378 3.436 1.378 5.612 0 .749-.086 1.464-.255 2.143-.171.681-.357 1.395-.561 2.143.816-.816 1.751-1.582 2.806-2.296 1.054-.714 2.194-1.071 3.418-1.071 1.7 0 3.146.714 4.337 2.143 1.189 1.429 1.786 2.959 1.786 4.592 0 2.722-1.293 4.864-3.878 6.429.067-.067.102-.271.102-.612 0-1.224-.408-2.296-1.224-3.214-.816-.918-1.905-1.378-3.265-1.378-1.362 0-2.398.494-3.112 1.48-.714.987-1.071 2.127-1.071 3.418 0 1.224.322 2.313.969 3.265.646.953 1.462 1.769 2.449 2.449.985.681 2.074 1.191 3.265 1.531 1.189.341 2.296.51 3.316.51 1.36 0 2.738-.169 4.133-.51 1.393-.34 2.653-.883 3.776-1.633 1.122-.748 2.023-1.717 2.704-2.908.679-1.189 1.02-2.636 1.02-4.337 0-.34-.018-.628-.051-.867-.035-.238-.086-.526-.153-.867-.953.408-2.025.885-3.214 1.429-1.191.545-2.331 1.089-3.418 1.633l-.408-12.449c1.224.816 2.312 1.531 3.265 2.143.952.612 1.972 1.191 3.061 1.735.271.137.373.035.306-.306-.477-1.7-1.004-3.23-1.582-4.592-.579-1.36-1.209-2.822-1.888-4.388h11.837c-.816 1.77-1.48 3.453-1.99 5.051-.51 1.599-.936 2.943-1.276 4.031-.137.408-.069.545.204.408.952-.544 2.006-1.189 3.163-1.939 1.156-.748 2.21-1.496 3.163-2.245l-.306 12.551c-1.089-.612-2.109-1.138-3.061-1.582-.953-.442-2.007-.934-3.163-1.48v1.837c0 3.061.832 5.408 2.5 7.041 1.666 1.633 3.962 2.449 6.888 2.449 1.224 0 2.414-.169 3.571-.51 1.156-.34 2.21-.832 3.163-1.48.952-.646 1.717-1.462 2.296-2.449.577-.985.867-2.159.867-3.52 0-1.156-.357-2.159-1.071-3.01-.714-.85-1.684-1.276-2.908-1.276-1.02 0-1.888.477-2.602 1.429-.714.953-1.242 1.803-1.582 2.551-.749-.748-1.362-1.598-1.837-2.551-.477-.952-.714-1.939-.714-2.959 0-1.972.493-3.638 1.48-5 .985-1.36 2.567-2.041 4.745-2.041 1.156 0 2.261.408 3.316 1.224 1.054.816 1.955 1.633 2.704 2.449-.204-1.224-.306-2.414-.306-3.571 0-2.176.51-4.115 1.531-5.816 1.02-1.7 2.312-3.163 3.878-4.388.883 1.089 1.582 2.211 2.092 3.367.51 1.158.765 2.416.765 3.776 0 1.497-.222 2.926-.663 4.286-.443 1.362-1.038 2.688-1.786 3.98.748-.679 1.564-1.291 2.449-1.837.883-.544 1.87-.816 2.959-.816 1.768 0 3.332.663 4.694 1.99 1.36 1.327 2.041 2.875 2.041 4.643 0 .953-.204 1.905-.612 2.857-.408.953-.953 1.837-1.633 2.653-.681.816-1.446 1.548-2.296 2.194-.851.647-1.719 1.106-2.602 1.378.408-.475.697-1.156.867-2.041.169-.883.255-1.598.255-2.143 0-2.38-1.191-3.571-3.571-3.571-1.429 0-2.484.681-3.163 2.041-.681 1.362-1.02 2.653-1.02 3.878 0 2.586.714 4.422 2.143 5.51 1.429 1.089 3.23 1.905 5.408 2.449.952.341 1.904.443 2.857.306 3.332-.136 5.816-1.138 7.449-3.01 1.633-1.87 2.924-4.745 3.878-8.622-1.293.477-2.518.918-3.673 1.327-1.158.408-2.347.953-3.571 1.633.544-1.972 1.138-4.235 1.786-6.786.646-2.551 1.24-4.745 1.786-6.582.748.885 1.531 1.77 2.347 2.653.816.885 1.666 1.701 2.551 2.449.34.341.51.204.51-.408l-.306-3.367c-.137-.952-.255-1.888-.357-2.806-.102-.918-.222-1.717-.357-2.398 1.496.204 2.942.459 4.337.765 1.389.3 2.631.693 3.72 1.168zm-108.571 12.04c0-.271-.069-.628-.204-1.071-.137-.442-.306-.867-.51-1.276-.204-.408-.459-.765-.765-1.071-.306-.306-.596-.459-.867-.459-.341 0-.545.204-.612.612-.069.408-.102.749-.102 1.02 0 .273.051.612.153 1.02.102.408.255.816.459 1.224.204.408.442.749.714 1.02.271.273.577.408.918.408.34 0 .561-.169.663-.51.102-.338.153-.644.153-.917zm5.816-19.183c0 .477-.171.885-.51 1.224-.341.341-.749.51-1.224.51-.477 0-.885-.169-1.224-.51-.341-.34-.51-.748-.51-1.224 0-.475.153-.883.459-1.224.306-.34.697-.51 1.173-.51.475 0 .901.171 1.276.51.372.341.56.749.56 1.224zm.918 39.694l-3.367-2.755c-.137.749-.255 1.599-.357 2.551-.102.952-.153 1.496-.153 1.633 0 .34.424.867 1.276 1.582.85.714 1.615 1.342 2.296 1.888.204-.612.306-1.566.306-2.857v-2.042zm40.51-40.919c.136.341-.137.51-.816.51-.545 0-.885-.067-1.02-.204-.341-1.7-.816-3.656-1.429-5.867-.612-2.21-1.327-4.166-2.143-5.867-2.857.612-5.765 1.446-8.724 2.5-2.959 1.056-5.867 2.262-8.724 3.622-2.857 1.362-5.596 2.841-8.214 4.439-2.62 1.599-4.984 3.249-7.092 4.949-.341.273-.714.596-1.122.969-.408.375-.749.63-1.02.765-.137.069-.357-.118-.663-.561-.306-.442-.426-.73-.357-.867.136-.271.442-.628.918-1.071.475-.442.85-.765 1.122-.969 2.516-1.972 5.067-3.758 7.653-5.357 2.584-1.598 5.306-3.061 8.163-4.388s5.901-2.533 9.133-3.622c3.23-1.087 6.786-2.108 10.663-3.061.34.816.697 1.837 1.071 3.061.373 1.224.73 2.484 1.071 3.776.34 1.293.646 2.569.918 3.827.271 1.258.475 2.396.612 3.416zm-37.142-2.755c0 .545-.204 1.02-.612 1.429-.409.408-.886.612-1.429.612-.545 0-1.02-.204-1.429-.612-.408-.408-.612-.883-.612-1.429 0-.544.187-1.02.561-1.429.373-.408.832-.612 1.378-.612.544 0 1.036.204 1.48.612.441.409.663.886.663 1.429zm5-3.673c0 .612-.204 1.122-.612 1.531-.408.408-.885.612-1.429.612-.545 0-1.038-.204-1.48-.612-.443-.408-.663-.918-.663-1.531 0-.544.204-1.02.612-1.429.408-.408.883-.612 1.429-.612.544 0 1.036.204 1.48.612.441.408.663.885.663 1.429zm0 43.775c0-.544-.204-1.02-.612-1.429-.408-.408-.885-.612-1.429-.612-.545 0-1.004.204-1.378.612-.375.408-.561.885-.561 1.429 0 .545.204 1.004.612 1.378.408.374.883.561 1.429.561 1.291 0 1.939-.646 1.939-1.939zm75.306 15.204c0 .544-.443.952-1.327 1.224-5.851 2.245-11.582 3.724-17.194 4.439s-11.683 1.072-18.214 1.072c-7.28 0-14.201-.392-20.765-1.173-6.566-.783-13.249-2.331-20.051-4.643-.749-.204-1.122-.51-1.122-.918 0-.341.34-.647 1.02-.918 2.857-1.158 5.918-2.127 9.184-2.908 3.265-.783 6.598-1.429 10-1.939 3.401-.51 6.768-.885 10.102-1.122 3.332-.239 6.496-.357 9.49-.357 2.72 0 5.697.102 8.929.306 3.23.204 6.496.544 9.796 1.02 3.299.475 6.564 1.105 9.796 1.888 3.23.781 6.173 1.717 8.827 2.806 1.018.338 1.529.747 1.529 1.223zm-73.266-9.796c0-.545-.222-1.02-.663-1.429-.443-.408-.936-.612-1.48-.612-.545 0-1.02.204-1.429.612s-.612.883-.612 1.429c0 .544.22 1.02.663 1.429.442.408.934.612 1.48.612.544 0 1.02-.204 1.429-.612.408-.408.612-.885.612-1.429zm3.878-52.755c0 .681-.222 1.26-.663 1.735-.443.477-1.004.714-1.684.714-.681 0-1.26-.238-1.735-.714-.477-.475-.714-1.054-.714-1.735 0-.612.22-1.156.663-1.633.442-.475 1.003-.714 1.684-.714.612 0 1.173.239 1.684.714.51.477.765 1.021.765 1.633zm12.959 45.204c-.204-1.291-.987-2.312-2.347-3.061-1.362-.748-2.926-.952-4.694-.612-1.77.273-3.198.969-4.286 2.092-1.089 1.122-1.531 2.331-1.327 3.622.204 1.362.985 2.398 2.347 3.112 1.36.714 2.924.934 4.694.663 1.768-.34 3.214-1.054 4.337-2.143 1.123-1.087 1.547-2.311 1.276-3.673zm-6.735-48.265c0 .749-.239 1.378-.714 1.888-.477.51-1.089.765-1.837.765-.749 0-1.395-.255-1.939-.765-.545-.51-.816-1.138-.816-1.888 0-.748.255-1.378.765-1.888s1.138-.765 1.888-.765c.748 0 1.378.255 1.888.765.51.511.765 1.14.765 1.888zm7.347-2.857c0 .749-.273 1.395-.816 1.939-.545.545-1.191.816-1.939.816-.749 0-1.395-.271-1.939-.816-.545-.544-.816-1.189-.816-1.939 0-.748.255-1.393.765-1.939.51-.544 1.138-.816 1.888-.816.748 0 1.411.273 1.99.816.577.545.867 1.191.867 1.939zm7.551-2.041c0 .749-.273 1.413-.816 1.99-.545.579-1.191.867-1.939.867-.749 0-1.429-.289-2.041-.867-.612-.577-.918-1.24-.918-1.99 0-.748.271-1.411.816-1.99.544-.577 1.224-.867 2.041-.867.748 0 1.411.29 1.99.867.577.579.867 1.242.867 1.99zm.409 50.714c0-.544-.204-1.003-.612-1.378-.408-.373-.885-.561-1.429-.561-1.293 0-1.939.647-1.939 1.939 0 .545.204 1.02.612 1.429.408.408.883.612 1.429.612.544 0 1.003-.204 1.378-.612.372-.408.561-.884.561-1.429zm.714 5.817c0-.544-.222-1.02-.663-1.429-.443-.408-.936-.612-1.48-.612-.545 0-1.02.204-1.429.612-.408.408-.612.885-.612 1.429 0 .612.22 1.122.663 1.531.442.408.934.612 1.48.612.544 0 1.02-.204 1.429-.612.408-.409.612-.919.612-1.531zm14.49-73.98l-.102 6.327-5.51-1.939v3.673c1.429.137 2.653.816 3.673 2.041s1.531 2.586 1.531 4.082c0 1.701-.612 3.147-1.837 4.337-1.224 1.191-2.688 1.786-4.388 1.786-1.837 0-3.385-.595-4.643-1.786-1.26-1.189-1.888-2.669-1.888-4.439 0-1.496.51-2.822 1.531-3.98 1.02-1.156 2.278-1.837 3.776-2.041v-3.673l-5.408 1.939-.307-6.327 5 1.327-2.143-6.633h7.755l-1.939 6.633 4.899-1.327zm-7.755 14.082l-.102-4.184c-1.77.545-2.892 1.701-3.367 3.469.882.477 2.04.715 3.469.715zm4.693 2.449c-.953-.612-2.178-.918-3.673-.918-.612 0-1.26.069-1.939.204-.681.137-1.293.375-1.837.714.408.681 1.02 1.173 1.837 1.48.816.306 1.496.459 2.041.459.544 0 1.189-.187 1.939-.561.748-.374 1.291-.833 1.632-1.378zm-.612 52.857l-1.429-2.245c-.341-.544-.698-1.071-1.071-1.582-.375-.51-.63-.765-.765-.765-.204 0-.477.255-.816.765-.341.51-.681 1.038-1.02 1.582l-1.224 2.245 1.327 2.347c.34.612.679 1.158 1.02 1.633.34.477.612.714.816.714.204 0 .475-.238.816-.714.34-.475.679-1.02 1.02-1.633l1.326-2.347zm-.51-45.306c0 .749-.255 1.378-.765 1.888s-1.14.765-1.888.765c-.681 0-1.276-.255-1.786-.765s-.765-1.138-.765-1.888c0-.748.255-1.378.765-1.888s1.138-.765 1.888-.765c.679 0 1.276.273 1.786.816.51.545.765 1.158.765 1.837zm-.408 5.816c0 .612-.222 1.122-.663 1.531-.443.408-.936.612-1.48.612-.545 0-1.071-.204-1.582-.612-.51-.408-.765-.919-.765-1.531 0-.612.238-1.122.714-1.531.475-.408.985-.612 1.531-.612.544 0 1.054.204 1.531.612.475.409.714.919.714 1.531zm-.306 4.898c0 .545-.188.987-.561 1.327-.375.341-.8.51-1.276.51-.477 0-.918-.169-1.327-.51-.408-.34-.612-.781-.612-1.327 0-.475.187-.883.561-1.224.373-.34.799-.51 1.276-.51.475 0 .918.171 1.327.51.408.341.612.749.612 1.224zm-.102 14.796c0-.475-.171-.883-.51-1.224-.341-.34-.783-.51-1.327-.51-.477 0-.867.171-1.173.51-.306.341-.459.749-.459 1.224 0 .477.169.885.51 1.224.34.341.748.51 1.224.51.475 0 .883-.169 1.224-.51.34-.339.511-.747.511-1.224zm2.551-36.327c-.137-.816-.494-1.496-1.071-2.041-.579-.544-1.276-.985-2.092-1.327-.069.137-.086.408-.051.816.033.408.051.885.051 1.429v1.939c1.087.138 2.142-.135 3.163-.816zm41.428 27.143l-.204.357-.204.357c-.341.545-.545.749-.612.612l-1.735-1.224c-5.102-4.082-10.51-7.482-16.224-10.204-5.714-2.72-11.668-4.863-17.857-6.429-.816 1.701-1.548 3.673-2.194 5.918-.647 2.245-1.071 4.117-1.276 5.612-.137.341-.443.51-.918.51-.545 0-.867-.016-.969-.051-.102-.033-.12-.187-.051-.459.136-1.02.34-2.159.612-3.418.271-1.258.595-2.533.969-3.827.373-1.291.748-2.551 1.122-3.776.373-1.224.73-2.278 1.071-3.163 4.013 1.02 7.653 2.109 10.918 3.265 3.265 1.158 6.342 2.449 9.235 3.878 2.891 1.429 5.663 2.994 8.316 4.694 2.653 1.701 5.373 3.607 8.163 5.714l1.838 1.634zm-34.388 33.47c0-.544-.222-1.02-.663-1.429-.443-.408-.936-.612-1.48-.612-.612 0-1.107.204-1.48.612-.375.408-.561.885-.561 1.429 0 .612.204 1.122.612 1.531.408.408.883.612 1.429.612.612 0 1.122-.204 1.531-.612s.612-.919.612-1.531zm.613-5.715c0-.544-.204-1.003-.612-1.378-.408-.373-.885-.561-1.429-.561-1.293 0-1.939.647-1.939 1.939 0 .545.204 1.02.612 1.429.408.408.883.612 1.429.612.544 0 1.003-.204 1.378-.612.373-.408.561-.884.561-1.429zm2.143-50.408c0 .749-.273 1.413-.816 1.99-.545.579-1.191.867-1.939.867-.749 0-1.429-.289-2.041-.867-.612-.577-.918-1.24-.918-1.99 0-.748.271-1.411.816-1.99.544-.577 1.224-.867 2.041-.867.748 0 1.411.29 1.99.867.576.579.867 1.242.867 1.99zm14.693 55c.204-1.36-.239-2.584-1.327-3.673-1.089-1.087-2.518-1.802-4.286-2.143-1.77-.271-3.351-.051-4.745.663-1.395.714-2.194 1.752-2.398 3.112-.204 1.293.238 2.484 1.327 3.571 1.087 1.089 2.516 1.803 4.286 2.143 1.768.34 3.35.136 4.745-.612 1.394-.748 2.194-1.768 2.398-3.061zm-7.04-52.857c0 .749-.273 1.395-.816 1.939-.545.545-1.191.816-1.939.816-.749 0-1.395-.271-1.939-.816-.545-.544-.816-1.189-.816-1.939 0-.748.255-1.393.765-1.939.51-.544 1.138-.816 1.888-.816.748 0 1.411.273 1.99.816.576.546.867 1.191.867 1.939zm7.04 2.857c0 .749-.239 1.378-.714 1.888-.477.51-1.089.765-1.837.765-.749 0-1.395-.255-1.939-.765-.545-.51-.816-1.138-.816-1.888 0-.748.255-1.378.765-1.888s1.138-.765 1.888-.765c.748 0 1.378.255 1.888.765.51.511.765 1.14.765 1.888zm5.919 3.061c0 .681-.222 1.26-.663 1.735-.443.477-1.004.714-1.684.714-.681 0-1.26-.238-1.735-.714-.477-.475-.714-1.054-.714-1.735 0-.612.22-1.156.663-1.633.442-.475 1.003-.714 1.684-.714.612 0 1.173.239 1.684.714.51.478.765 1.021.765 1.633zm1.837 52.143c0-.545-.222-1.02-.663-1.429-.443-.408-.936-.612-1.48-.612-.545 0-1.02.204-1.429.612s-.612.883-.612 1.429c0 .544.22 1.02.663 1.429.442.408.934.612 1.48.612.544 0 1.02-.204 1.429-.612.407-.408.612-.885.612-1.429zm1.632-5.51c0-.544-.204-1.003-.612-1.378-.408-.373-.885-.561-1.429-.561-1.293 0-1.939.647-1.939 1.939 0 .545.204 1.02.612 1.429.408.408.883.612 1.429.612.544 0 1.003-.204 1.378-.612.373-.408.561-.884.561-1.429zm1.837-43.061c0 .612-.204 1.122-.612 1.531-.408.408-.885.612-1.429.612-.545 0-1.038-.204-1.48-.612-.443-.408-.663-.918-.663-1.531 0-.544.204-1.02.612-1.429.408-.408.883-.612 1.429-.612.544 0 1.036.204 1.48.612.441.408.663.885.663 1.429zm5.102 3.673c0 .545-.204 1.02-.612 1.429-.408.408-.885.612-1.429.612-.545 0-1.02-.204-1.429-.612s-.612-.883-.612-1.429c0-.544.204-1.02.612-1.429.408-.408.883-.612 1.429-.612.544 0 1.02.204 1.429.612.408.409.612.886.612 1.429zm1.939 43.98c0-.341-.12-.934-.357-1.786-.239-.85-.494-1.547-.765-2.092l-3.163 3.163 1.939 4.184c.408-.612.901-1.26 1.48-1.939.576-.68.866-1.19.866-1.53zm1.939-40c0 .477-.171.885-.51 1.224-.341.341-.749.51-1.224.51-.477 0-.885-.169-1.224-.51-.341-.34-.51-.748-.51-1.224 0-.475.153-.883.459-1.224.306-.34.697-.51 1.173-.51.475 0 .901.171 1.276.51.371.341.56.749.56 1.224zm4.183 16.633c0-.271-.051-.561-.153-.867-.102-.306-.324-.459-.663-.459-.341 0-.647.153-.918.459-.273.306-.51.663-.714 1.071-.204.408-.357.834-.459 1.276-.102.443-.153.8-.153 1.071 0 .273.051.561.153.867.102.306.322.459.663.459.34 0 .646-.153.918-.459.271-.306.51-.663.714-1.071.204-.408.357-.832.459-1.276.102-.442.153-.799.153-1.071z"/></svg>